HIERARCHY
ROOT hip
{
	OFFSET 0.000000 0.000000 0.000000 
	CHANNELS 6 Xposition Yposition Zposition Xrotation Zrotation Yrotation
	JOINT abdomen
	{
		OFFSET 0.000000 3.402643 0.000000 
		CHANNELS 3 Xrotation Zrotation Yrotation
		JOINT chest
		{
			OFFSET 0.000000 8.438565 -0.680529 
			CHANNELS 3 Xrotation Zrotation Yrotation
			JOINT neck
			{
				OFFSET 0.000000 10.207942 -0.272212 
				CHANNELS 3 Xrotation Zrotation Yrotation
				JOINT head
				{
					OFFSET 0.000000 3.130431 0.000000 
					CHANNELS 3 Xrotation Zrotation Yrotation
					End Site
					{
						OFFSET 0.000000 3.130435 0.000000 
					}
				}
			}
			JOINT lCollar
			{
				OFFSET 3.470700 6.669187 -0.816635 
				CHANNELS 3 Yrotation Zrotation Xrotation
				JOINT lShldr
				{
					OFFSET 3.198488 0.000000 0.000000 
					CHANNELS 3 Zrotation Yrotation Xrotation
					JOINT lForeArm
					{
						OFFSET 10.139888 0.000000 0.000000 
						CHANNELS 3 Yrotation Zrotation Xrotation
						JOINT lHand
						{
							OFFSET 8.370511 0.000000 0.000000 
							CHANNELS 3 Zrotation Yrotation Xrotation
							End Site
							{
								OFFSET 4.083176 0.000000 0.000000 
							}
						}
					}
				}
			}
			JOINT rCollar
			{
				OFFSET -3.470700 6.669187 -0.816635 
				CHANNELS 3 Yrotation Zrotation Xrotation
				JOINT rShldr
				{
					OFFSET -3.198488 0.000000 0.000000 
					CHANNELS 3 Zrotation Yrotation Xrotation
					JOINT rForeArm
					{
						OFFSET -10.139888 0.000000 0.000000 
						CHANNELS 3 Yrotation Zrotation Xrotation
						JOINT rHand
						{
							OFFSET -8.370511 0.000000 0.000000 
							CHANNELS 3 Zrotation Yrotation Xrotation
							End Site
							{
								OFFSET -4.083176 0.000000 0.000000 
							}
						}
					}
				}
			}
		}
	}
	JOINT lThigh
	{
		OFFSET 5.308129 -1.633274 1.361059 
		CHANNELS 3 Xrotation Zrotation Yrotation
		JOINT lShin
		{
			OFFSET -2.041588 -20.007561 0.000000 
			CHANNELS 3 Xrotation Zrotation Yrotation
			JOINT lFoot
			{
				OFFSET 0.000000 -19.190928 -1.224953 
				CHANNELS 3 Xrotation Yrotation Zrotation
				End Site
				{
					OFFSET 0.000000 -2.449906 4.627600 
				}
			}
		}
	}
	JOINT rThigh
	{
		OFFSET -5.308129 -1.633274 1.361059 
		CHANNELS 3 Xrotation Zrotation Yrotation
		JOINT rShin
		{
			OFFSET 2.041588 -20.007561 0.000000 
			CHANNELS 3 Xrotation Zrotation Yrotation
			JOINT rFoot
			{
				OFFSET 0.000000 -19.190928 -1.224953 
				CHANNELS 3 Xrotation Yrotation Zrotation
				End Site
				{
					OFFSET 0.000000 -2.449906 4.627600 
				}
			}
		}
	}
}
MOTION
Frames: 6
Frame Time: 0.033333
1.261114 46.781265 -10.791813 17.705078 6.865235 -20.439451 34.924763 -19.245302 -3.723522 -13.593751 4.443359 9.365234 27.333641 0.510293 -0.087082 -29.667973 7.714844 20.400391 2.000000 -2.000000 0.000000 -77.900391 25.800779 6.552734 -49.443981 25.923147 23.298031 8.451841 -38.011883 -10.805895 -2.000000 2.000000 0.000000 64.794922 17.490236 112.893562 84.014465 -122.001320 49.248291 42.010246 38.914684 4.950945 -19.389608 12.649594 20.056519 35.788063 -10.026095 -3.771840 -11.905435 0.464946 -5.605030 -50.426346 -18.563177 -2.343357 73.782272 12.040538 8.501983 0.168992 -11.905313 15.257689 
0.970177 47.216145 -10.708458 18.681641 6.230469 -20.291910 34.924763 -19.245302 -3.723522 -14.902344 5.439454 9.355469 27.294529 -0.610593 -0.184169 -28.808594 9.238281 22.236332 2.000000 -2.000000 0.000000 -76.748047 29.804688 5.634766 -50.691982 21.030977 17.858725 19.299831 -30.118555 -13.066160 -2.000000 2.000000 0.000000 63.281250 21.201172 112.640251 69.095886 -127.208778 34.800987 37.250229 31.721352 -4.416319 -18.376192 12.925729 20.290556 32.496288 -9.448863 -3.430136 -10.409264 0.699368 -6.885165 -50.875710 -19.061213 -2.461735 72.994759 12.129008 8.451710 1.321281 -11.087592 15.156347 
0.593291 47.606651 -10.509010 19.316406 5.722657 -19.911133 34.924763 -19.245302 -3.723522 -16.562502 6.210938 9.199219 28.433735 -1.768636 -0.265795 -28.095707 10.468749 23.623053 2.000000 -2.000000 0.000000 -75.605469 33.505859 4.751485 -50.543396 17.005869 13.696135 28.138784 -25.750317 -13.899443 -2.000000 2.000000 0.000000 61.601566 25.039063 112.162338 60.643501 -133.719498 26.628992 33.127769 22.685171 -12.324154 -16.825811 12.909608 20.466379 29.011986 -8.833207 -3.088135 -8.863358 0.867760 -7.887455 -49.573250 -19.508842 -2.663297 69.803795 12.060693 8.153422 2.345213 -9.972756 15.691950 
0.123891 47.856178 -10.221791 19.404299 5.371094 -19.276428 34.924763 -19.245302 -3.723522 -18.232422 6.455079 8.956177 30.303545 -2.709861 -0.350662 -27.666016 11.455077 25.029299 2.000000 -2.000000 0.000000 -74.501953 36.640625 4.013672 -48.880508 14.185645 10.895078 35.750118 -23.070841 -14.417595 -2.000000 2.000000 0.000000 59.667965 29.062502 111.572266 55.655468 -140.243958 23.364908 30.000889 14.721994 -17.387358 -14.986113 12.736639 20.616102 26.184479 -8.369724 -2.794047 -7.729687 0.841143 -8.692170 -46.676689 -19.920647 -2.983805 64.860031 11.552488 7.591841 3.502151 -8.095137 16.785315 
-0.427254 47.911720 -9.874189 18.740236 5.224610 -18.358482 34.924763 -19.245302 -3.723522 -19.433594 6.005860 8.623047 32.289814 -3.479625 -0.411554 -27.431643 12.285156 26.582033 2.000000 -2.000000 0.000000 -73.359375 39.296879 3.736656 -45.962833 12.621115 9.048187 42.181358 -21.042295 -14.683162 -2.000000 2.000000 0.000000 57.294922 33.544922 111.021027 -127.375923 -33.432308 -156.262543 28.820906 9.432231 -19.604443 -13.114521 12.615656 20.762039 24.898880 -8.289642 -2.667551 -7.215775 0.351206 -8.933859 -42.463497 -20.250153 -3.356246 59.190357 10.340829 6.757662 4.653286 -4.740857 17.835644 
-1.034764 47.716637 -9.546656 17.851563 5.429687 -17.070311 34.924763 -19.245302 -3.723522 -20.390625 4.804688 8.203943 33.683231 -3.822514 -0.458487 -27.207033 12.695312 28.125004 2.000000 -2.000000 0.000000 -71.972656 41.640625 4.313130 -42.181446 11.843832 6.311101 47.422211 -19.168764 -14.280809 -2.000000 2.000000 0.000000 54.101563 38.583984 110.015862 -129.466568 -27.677162 -153.572632 29.835588 6.588384 -19.872589 -12.242797 12.638712 20.845207 25.745646 -8.355065 -2.759471 -7.516384 -1.055498 -8.360967 -38.235321 -20.611341 -3.700200 54.208721 8.386041 5.855250 4.945857 -0.509998 18.502445 
